<svg id="color" enable-background="new 0 0 24 24" height="512" viewBox="0 0 24 24" width="512" xmlns="http://www.w3.org/2000/svg"><path d="m21 1h-18c-1.654 0-3 1.346-3 3v16c0 1.654 1.346 3 3 3h18c1.654 0 3-1.346 3-3v-16c0-1.654-1.346-3-3-3z" fill="#607d8b"/><path d="m21 21h-18c-.551 0-1-.448-1-1v-14h20v14c0 .552-.449 1-1 1z" fill="#fff"/><path d="m6.75 20c-.197 0-.388-.078-.53-.22-.177-.177-.254-.432-.205-.677l.67-3.351c.029-.145.1-.279.205-.383l6.872-6.872c.662-.661 1.739-.662 2.4-.001l1.341 1.341c.661.662.661 1.739.001 2.4l-6.873 6.873c-.105.105-.238.176-.383.205l-3.351.67zm3.351-1.42h.01z" fill="#2196f3"/><path d="m12 1h-9c-1.654 0-3 1.346-3 3v16c0 1.654 1.346 3 3 3h9v-2h-9c-.551 0-1-.448-1-1v-14h10z" fill="#546d79"/><path d="m12 6h-10v14c0 .552.449 1 1 1h9v-3.259l-1.369 1.369c-.105.105-.238.176-.383.205l-3.351.67-.147.015c-.197 0-.388-.078-.53-.22-.177-.177-.254-.432-.205-.677l.67-3.351c.029-.145.1-.279.205-.383l5.11-5.11z" fill="#dedede"/><path d="m12 10.259-5.11 5.11c-.105.104-.176.238-.205.383l-.67 3.351c-.049.246.028.5.205.677.142.142.333.22.53.22l.147-.015 3.351-.67c.146-.029.279-.1.383-.205l1.369-1.369z" fill="#1d83d4"/></svg>