<svg id="Layer_1" height="512" viewBox="0 0 512 512" width="512" xmlns="http://www.w3.org/2000/svg" data-name="Layer 1"><path d="m486 26-144.18 460-92.31-92.31z" fill="#c3eac6"/><path d="m486 26-236.49 367.69-111.33-19.87z" fill="#9ac5a1"/><path d="m486 26-347.82 347.82-19.87-111.33z" fill="#75967a"/><path d="m486 26-367.69 236.49-92.31-92.31z" fill="#c3eac6"/><path d="m405.204 77.966 80.796-51.966-460 144.18 20.284 20.284z" fill="#9cb79d"/><g fill="#284268"><path d="m484.205 20.274-460 144.181a6 6 0 0 0 -2.448 9.968l90.98 90.979 19.537 109.472a6 6 0 0 0 4.852 4.852l109.474 19.537 90.979 90.98a6 6 0 0 0 9.968-2.449l144.18-460a6 6 0 0 0 -7.52-7.52zm-446.957 152.668 408.052-127.897-326.165 209.785zm87.674 92.434 317.3-204.087-300.155 300.158zm25.63 104.556 300.159-300.157-204.086 317.3zm188.505 104.82-81.887-81.887 209.785-326.165z"/><path d="m214.138 138.678a6 6 0 0 0 -7.8-3.352l-1.808.72a6 6 0 1 0 4.443 11.148l1.808-.721a6 6 0 0 0 3.357-7.795z"/><path d="m186.419 143.266-80.155 31.945a6 6 0 1 0 4.442 11.147l80.156-31.944a6 6 0 0 0 -4.443-11.148z"/></g></svg>