<svg height="512pt" viewBox="-94 0 512 512.00034" width="512pt" xmlns="http://www.w3.org/2000/svg"><path d="m133.640625 425.792969h19.355469c4.871094 0 9.167968-3.191407 10.574218-7.851563l27.621094-91.566406-6.601562.070312zm0 0"/><path d="m320.882812 30.546875c.074219-.128906.074219-.128906 0 0zm0 0"/><path d="m320.820312 30.652344c-.011718.019531-.019531.035156-.03125.054687 5.492188-9.449219 2.816407-21.769531-6.433593-27.59375-9.710938-6.117187-22.472657-2.914062-28.191407 6.925781l-46.058593 79.292969c2.121093 22.628907-10.496094 43.101563-30.183594 51.96875l-2.269531 3.90625h-46.578125c-5.027344 0-10.027344.738281-14.839844 2.1875l-59.460937 17.917969-34.933594-45.792969c-6.753906-8.851562-19.40625-10.554687-28.257813-3.800781-8.851562 6.753906-10.554687 19.40625-3.800781 28.257812l43.523438 57.058594c5.136718 6.734375 13.96875 9.5625 22.101562 6.996094 7.988281-2.523438 34.6875-10.613281 46.679688-14.398438v100.488282l-93.664063 182.640625c-6.628906 12.921875-.460937 28.714843 13.175781 33.75 11.285156 4.164062 24.214844-.628907 29.878906-11.667969l95.074219-185.390625 15.6875-.171875c6.34375 4.035156 28.808594 18.320312 38.71875 24.621094l-36.335937 71.570312c-6.046875 11.917969-1.292969 26.476563 10.621094 32.527344 11.890624 6.035156 26.464843 1.316406 32.527343-10.621094l46.273438-91.152344c5.636719-11.109374 1.921875-24.683593-8.589844-31.367187-10.449219-6.644531-33.890625-20.839844-40.972656-25.34375v-104.214844s82.800781-142.550781 86.339843-148.648437zm-137.46875 190.828125c-13.191406 0-23.882812-10.691407-23.882812-23.882813 0-13.1875 10.691406-23.882812 23.882812-23.882812 13.191407 0 23.882813 10.699218 23.882813 23.882812 0 13.191406-10.691406 23.882813-23.882813 23.882813zm0 0"/><path d="m320.820312 30.652344c.027344-.042969.046876-.078125.0625-.105469-.015624.027344-.035156.066406-.0625.105469zm0 0"/><path d="m188.722656 134.769531c.148438 0 .296875-.003906.445313-.003906 22.394531-.242187 40.351562-18.589844 40.109375-40.984375-.238282-22.242188-18.347656-40.109375-40.535156-40.109375-.148438 0-.296876.003906-.445313.003906-22.394531.242188-40.351563 18.589844-40.109375 40.980469.242188 22.242188 18.347656 40.113281 40.535156 40.113281zm0 0"/><path d="m118.542969 291.027344v-79.667969l-8.15625 2.425781-108.976563 195.589844c-4.097656 7.359375 1.222656 16.417969 9.648438 16.417969h38.800781zm0 0"/></svg>